<svg width="63" height="63" viewBox="0 0 63 63" xmlns="http://www.w3.org/2000/svg"><symbol id="icon-search" viewBox="0 0 60 60"><title>Search magnifying glass</title><path d="M68.76 61.15L51.5 45.87a5.92 5.92 0 0 0-4-1.75 21 21 0 1 0-2.35 2.35 5.92 5.92 0 0 0 1.75 4l15.26 17.29a4.7 4.7 0 1 0 6.61-6.61zM31.5 46.5a16 16 0 1 1 16-16 16 16 0 0 1-16 16z" transform="translate(-10.5 -9.5)"/></symbol><symbol id="icon-arrow-right" viewBox="0 0 33.37 27.72"><title>Arrow pointing right</title><path d="M33.37 13.86L19.51 0h-5.9l11.73 11.63H0v4.43h25.34L13.61 27.72h5.9l13.86-13.86z"/></symbol><symbol id="icon-arrow-left" viewBox="0 0 33.37 27.72"><title>Arrow pointing left</title><path d="M0 13.86l13.86 13.86h5.9L8.03 16.09h25.34v-4.43H8.03L19.76 0h-5.9L0 13.86z"/></symbol><symbol id="icon-chevron-right" viewBox="0 0 20 20"><title>Chevron right</title><path d="M9.163 4.516c.418.408 4.502 4.695 4.502 4.695a1.095 1.095 0 0 1 0 1.576s-4.084 4.289-4.502 4.695c-.418.408-1.17.436-1.615 0-.446-.434-.481-1.041 0-1.574L11.295 10 7.548 6.092c-.481-.533-.446-1.141 0-1.576s1.197-.409 1.615 0z"/></symbol><symbol id="icon-chevron-left" viewBox="0 0 20 20"><title>Chevron left</title><path d="M12.452 4.516c.446.436.481 1.043 0 1.576L8.705 10l3.747 3.908c.481.533.446 1.141 0 1.574-.445.436-1.197.408-1.615 0-.418-.406-4.502-4.695-4.502-4.695a1.095 1.095 0 0 1 0-1.576s4.084-4.287 4.502-4.695 1.17-.436 1.615 0z"/></symbol><symbol id="icon-chevron-down" viewBox="0 0 20 20"><title>Chevron down</title><path d="M4.516 7.548c.436-.446 1.043-.481 1.576 0L10 11.295l3.908-3.747c.533-.481 1.141-.446 1.574 0 .436.445.408 1.197 0 1.615-.406.418-4.695 4.502-4.695 4.502a1.095 1.095 0 0 1-1.576 0S4.924 9.581 4.516 9.163s-.436-1.17 0-1.615z"/></symbol><symbol id="icon-chevron-up" viewBox="0 0 20 20"><title>Chevron up</title><path d="M15.484 12.452c-.436.446-1.043.481-1.576 0L10 8.705l-3.908 3.747c-.533.481-1.141.446-1.574 0-.436-.445-.408-1.197 0-1.615.406-.418 4.695-4.502 4.695-4.502a1.095 1.095 0 0 1 1.576 0s4.287 4.084 4.695 4.502.436 1.17 0 1.615z"/></symbol><symbol id="icon-facebook" viewBox="0 0 1792 1792"><title>Facebook Logo</title><path d="M1343 12v264h-157q-86 0-116 36t-30 108v189h293l-39 296h-254v759H734V905H479V609h255V391q0-186 104-288.5T1115 0q147 0 228 12z"/></symbol><symbol id="icon-twitter" viewBox="0 0 1792 1792"><title>Twitter Logo</title><path d="M1684 408q-67 98-162 167 1 14 1 42 0 130-38 259.5T1369.5 1125 1185 1335.5t-258 146-323 54.5q-271 0-496-145 35 4 78 4 225 0 401-138-105-2-188-64.5T285 1033q33 5 61 5 43 0 85-11-112-23-185.5-111.5T172 710v-4q68 38 146 41-66-44-105-115t-39-154q0-88 44-163 121 149 294.5 238.5T884 653q-8-38-8-74 0-134 94.5-228.5T1199 256q140 0 236 102 109-21 205-78-37 115-142 178 93-10 186-50z"/></symbol><symbol id="icon-linkedin" viewBox="0 0 1792 1792"><title>Linkedin Logo</title><path d="M477 625v991H147V625h330zm21-306q1 73-50.5 122T312 490h-2q-82 0-132-49t-50-122q0-74 51.5-122.5T314 148t133 48.5T498 319zm1166 729v568h-329v-530q0-105-40.5-164.5T1168 862q-63 0-105.5 34.5T999 982q-11 30-11 81v553H659q2-399 2-647t-1-296l-1-48h329v144h-2q20-32 41-56t56.5-52 87-43.5T1285 602q171 0 275 113.5t104 332.5z"/></symbol><symbol id="icon-rss" viewBox="0 0 1792 1792"><title>RSS Logo</title><path d="M576 1344q0 80-56 136t-136 56-136-56-56-136 56-136 136-56 136 56 56 136zm512 123q2 28-17 48-18 21-47 21H889q-25 0-43-16.5t-20-41.5q-22-229-184.5-391.5T250 902q-25-2-41.5-20T192 839V704q0-29 21-47 17-17 43-17h5q160 13 306 80.5T826 902q114 113 181.5 259t80.5 306zm512 2q2 27-18 47-18 20-46 20h-143q-26 0-44.5-17.5T1329 1476q-12-215-101-408.5t-231.5-336-336-231.5T252 398q-25-1-42.5-19.5T192 335V192q0-28 20-46 18-18 44-18h3q262 13 501.5 120T1186 542q187 186 294 425.5t120 501.5z"/></symbol><symbol id="icon-phone" viewBox="0 0 16 20"><title>Phone Icon</title><path d="M8.967 14.45c.366.336.732.397 1.098.183l3.066 5.216c-.428.275-1.594.16-3.5-.343-1.907-.503-4.02-2.753-6.337-6.749C1.128 8.975.281 6.184.754 4.383c.473-1.8.922-2.852 1.35-3.157L5.261 6.58c-.366.214-.503.557-.412 1.03.092.472.259.953.504 1.44 0 .031.732 1.281 2.196 3.752.579.763 1.052 1.312 1.418 1.648zM7.183 5.481l-1.51.869L2.516.997 3.98.128c.153-.122.32-.16.503-.114s.32.16.412.343L7.412 4.52a.726.726 0 0 1 .068.527.833.833 0 0 1-.297.434zm8.099 12.355a.64.64 0 0 1 .069.503.644.644 0 0 1-.297.412l-1.51.869-3.112-5.216 1.51-.869a.552.552 0 0 1 .503-.114c.183.046.32.16.412.343l2.425 4.072z"/></symbol></svg>